<svg viewBox="0 0 128 128" xmlns="http://www.w3.org/2000/svg" xmlns:xlink="http://www.w3.org/1999/xlink" width="128.000000" height="128.000000" fill="none">
	<rect id="audit" width="128.000000" height="128.000000" x="0.000000" y="0.000000" fill="rgb(255,255,255)" fill-opacity="0" />
	<path id="Vector" d="M69.3334 112L69.3334 122.667L58.6667 122.667L58.6667 112L16.0001 112C13.0546 112 10.6667 109.612 10.6667 106.667L10.6667 32L117.333 32L117.333 106.667C117.333 109.612 114.946 112 112 112L69.3334 112ZM42.6667 53.3333C33.8302 53.3333 26.6667 60.4965 26.6667 69.3333C26.6667 78.1701 33.8302 85.3333 42.6667 85.3333C51.5033 85.3333 58.6667 78.1701 58.6667 69.3333L42.6667 69.3333L42.6667 53.3333ZM69.3334 53.3333L69.3334 64L101.333 64L101.333 53.3333L69.3334 53.3333ZM69.3334 74.6667L69.3334 85.3333L101.333 85.3333L101.333 74.6667L69.3334 74.6667ZM10.6667 16L117.333 16L117.333 26.6667L10.6667 26.6667L10.6667 16Z" fill="rgb(190,132,23)" fill-opacity="0.100000001" fill-rule="nonzero" />
</svg>
