<svg viewBox="0 0 128 128" xmlns="http://www.w3.org/2000/svg" xmlns:xlink="http://www.w3.org/1999/xlink" width="128.000000" height="128.000000" fill="none">
	<rect id="chart" width="128.000000" height="128.000000" x="0.000000" y="0.000000" fill="rgb(255,255,255)" fill-opacity="0" />
	<path id="Vector" d="M110.471 43.3498L109.156 46.3668C108.194 48.5755 105.139 48.5755 104.176 46.3668L102.862 43.3498C100.518 37.9704 96.296 33.6874 91.0277 31.3443L86.976 29.5424C84.7856 28.5681 84.7856 25.3802 86.976 24.4059L90.801 22.7047C96.2048 20.3013 100.502 15.8598 102.806 10.2977L104.156 7.03742C105.098 4.7652 108.236 4.7652 109.176 7.03742L110.527 10.2977C112.831 15.8598 117.128 20.3013 122.532 22.7047L126.357 24.4059C128.548 25.3802 128.548 28.5681 126.357 29.5424L122.306 31.3443C117.037 33.6874 112.815 37.9704 110.471 43.3498ZM117.333 106.667L117.333 56.8458C113.997 58.025 110.407 58.6666 106.667 58.6666C100.838 58.6666 95.3733 57.1082 90.6666 54.3855L90.6666 90.6666L80 90.6666L80 53.3333L88.9717 53.3333C80.3493 47.6003 74.6666 37.7971 74.6666 26.6666C74.6666 22.9265 75.3082 19.3362 76.4874 15.9999L16 15.9999C13.0545 15.9999 10.6666 18.3878 10.6666 21.3333L10.6666 106.667C10.6666 109.612 13.0545 112 16 112L112 112C114.946 112 117.333 109.612 117.333 106.667ZM37.3333 69.3333L48 69.3333L48 90.6666L37.3333 90.6666L37.3333 69.3333ZM58.6666 37.3333L69.3333 37.3333L69.3333 90.6666L58.6666 90.6666L58.6666 37.3333Z" fill="rgb(11,75,241)" fill-opacity="0.100000001" fill-rule="nonzero" />
</svg>
