<svg viewBox="0 0 128 128" xmlns="http://www.w3.org/2000/svg" xmlns:xlink="http://www.w3.org/1999/xlink" width="128.000000" height="128.000000" fill="none">
	<rect id="file search" width="128.000000" height="128.000000" x="0.000000" y="0.000000" fill="rgb(255,255,255)" fill-opacity="0" />
	<path id="Vector" d="M85.3333 10.6667L112 37.3334L112 112.044C112 114.965 109.627 117.333 106.702 117.333L21.2981 117.333C18.3721 117.333 16 114.905 16 112.044L16 15.9563C16 13.035 18.3731 10.6667 21.2981 10.6667L85.3333 10.6667ZM72.1547 77.0475L83.944 88.8369L91.4864 81.2939L79.6971 69.5051C84.5291 61.3243 83.4304 50.6108 76.4011 43.5818C68.0699 35.2506 54.5627 35.2506 46.2314 43.5818C37.9003 51.913 37.9003 65.4203 46.2314 73.7515C53.2604 80.7809 63.9739 81.8795 72.1547 77.0475ZM68.8587 66.2091C64.6933 70.375 57.9397 70.375 53.7739 66.2091C49.6083 62.0438 49.6083 55.2897 53.7739 51.1243C57.9397 46.9587 64.6933 46.9587 68.8587 51.1243C73.0245 55.2897 73.0245 62.0438 68.8587 66.2091Z" fill="rgb(212.847,47.0878,250.058)" fill-opacity="0.100000001" fill-rule="nonzero" />
</svg>
