<svg viewBox="0 0 128 128" xmlns="http://www.w3.org/2000/svg" xmlns:xlink="http://www.w3.org/1999/xlink" width="128.000000" height="128.000000" fill="none">
	<rect id="percentage" width="128.000000" height="128.000000" x="0.000000" y="0.000000" fill="rgb(255,255,255)" fill-opacity="0" />
	<path id="Vector" d="M93.3593 112.014C83.05 112.014 74.6926 103.657 74.6926 93.3477C74.6926 83.0384 83.05 74.681 93.3593 74.681C103.669 74.681 112.026 83.0384 112.026 93.3477C112.026 103.657 103.669 112.014 93.3593 112.014ZM34.6925 53.3477C24.3833 53.3477 16.0259 44.9906 16.0259 34.6813C16.0259 24.372 24.3833 16.0146 34.6925 16.0146C45.0019 16.0146 53.3593 24.372 53.3593 34.6813C53.3593 44.9906 45.0019 53.3477 34.6925 53.3477ZM101.739 18.7598L109.281 26.3023L26.3136 109.269L18.7711 101.727L101.739 18.7598Z" fill="rgb(78,195,48)" fill-opacity="0.100000001" fill-rule="nonzero" />
</svg>
